<svg width="95" height="90" viewBox="0 0 95 90" fill="none" xmlns="http://www.w3.org/2000/svg">
<path d="M19.6324 39.406C22.0388 38.0261 24.2747 38.4463 25.6135 40.5581C26.6897 42.2508 25.263 46.6715 23.3018 47.7359C21.3042 48.821 18.9224 48.2627 17.853 46.4714C16.4305 44.1075 17.2746 40.7583 19.6324 39.406Z" fill="#A1A1AA"/>
<path d="M24.4673 63.3845C21.9194 67.1634 18.8105 67.3484 15.4147 63.9106C15.375 61.9457 15.8056 60.2032 17.218 58.6454C18.5715 57.1526 20.1145 56.9719 21.8684 57.3972C23.5841 57.8126 24.1083 59.1716 24.2669 60.7063C24.369 61.5949 24.4156 62.4991 24.4673 63.3845Z" fill="#A1A1AA"/>
<path d="M60.5693 46.9885C60.6827 47.4289 60.8395 47.8605 60.8905 48.3048C61.1888 50.407 61.0868 52.6258 59.2178 53.8745C57.4631 55.0427 55.4294 54.2239 53.6625 53.2539C53.2563 51.9858 52.4599 50.6864 52.5376 49.4436C52.647 47.4573 53.7054 45.7375 55.818 45.013C57.981 44.2917 59.3495 45.5191 60.5693 46.9885Z" fill="#A1A1AA"/>
<path d="M45.8104 58.352C45.497 58.6715 45.1577 58.9743 44.8634 59.2989C42.4331 61.8753 41.6946 61.9942 38.3365 60.3805C38.0771 58.7295 37.6616 57.088 37.6207 55.4236C37.5869 53.8812 38.3822 52.484 40.001 51.9922C41.8538 51.4309 44.6251 52.6517 45.2592 54.39C45.7 55.607 45.6451 57.0261 45.8104 58.352Z" fill="#A1A1AA"/>
<path d="M79.6279 25.9169C80.6363 27.5219 81.7746 28.9901 80.9806 31.1594C79.7049 34.6269 77.2407 35.661 73.9049 33.8927C72.5472 31.8864 72.0913 29.8736 73.7264 27.7323C75.32 25.6303 76.7515 25.15 79.6279 25.9169Z" fill="#A1A1AA"/>
<path d="M27.9054 23.7228C30.2857 22.3262 32.8703 22.8169 34.2854 24.9484C35.4867 26.7438 34.6907 29.8448 32.7382 30.9515C30.8586 32.0171 27.3439 31.1546 26.2241 29.3603C25.1809 27.6962 26.0518 24.8051 27.9054 23.7228Z" fill="#A1A1AA"/>
<path d="M58.5542 36.5224C56.9893 33.971 57.4756 31.361 59.7468 30.0262C61.8551 28.7996 63.8399 29.4252 65.2223 31.7487C66.6118 34.0841 65.7743 37.2244 63.4198 38.5275C61.9455 39.3475 59.7244 38.43 58.5542 36.5224Z" fill="#A1A1AA"/>
<path d="M43.4673 18.5921C42.1073 16.2243 42.9955 13.3076 45.5006 11.9033C46.9021 11.1246 49.3415 11.9184 50.2128 13.4276C51.5658 15.7836 50.9311 18.8563 48.8504 20.02C46.9899 21.0905 44.5264 20.4208 43.4673 18.5921Z" fill="#A1A1AA"/>
<path d="M68.0617 20.7385C65.9309 22.0095 63.4765 21.6027 62.3047 19.7749C61.0911 17.8761 61.7354 15.2869 63.7087 14.2156C66.1792 12.8625 68.2052 13.2282 69.3998 15.2323C70.6919 17.4021 70.1924 19.4675 68.0617 20.7385Z" fill="#A1A1AA"/>
<path d="M40.4696 29.3606C42.4065 28.3099 44.3444 28.8833 45.48 30.842C46.6087 32.789 45.9402 35.3919 44.019 36.4968C42.5344 37.3541 39.8868 36.5364 38.9148 34.9108C37.701 32.9016 38.375 30.5006 40.4696 29.3606Z" fill="#A1A1AA"/>
<path d="M43.9166 44.8197C42.8782 42.9163 43.584 40.8443 45.6871 39.6364C47.6153 38.5434 49.2946 38.9794 50.3434 40.8454C51.5869 43.0426 50.7968 45.4936 48.4993 46.591C46.6834 47.4626 44.9916 46.8128 43.9166 44.8197Z" fill="#A1A1AA"/>
<path d="M29.6856 47.0983C31.3313 46.1023 34.181 46.5216 34.9879 47.8938C35.8713 49.3962 34.8901 52.6496 33.2514 53.6574C31.7339 54.5965 29.1957 53.8272 28.1558 52.1138C27.2412 50.6133 27.9983 48.1337 29.6856 47.0983Z" fill="#A1A1AA"/>
<path d="M28.4119 69.3503C31.0296 67.8349 33.4826 68.4318 34.907 70.9366C35.9678 72.7958 35.2246 75.2991 33.2533 76.5113C31.2871 77.7047 28.2736 76.842 26.9191 74.6761C25.4552 72.3514 25.8792 70.8177 28.4119 69.3503Z" fill="#A1A1AA"/>
<path d="M72.7032 46.4508C75.1701 45.0365 76.8512 45.5031 78.4613 48.0762C79.581 49.8705 78.8678 52.6723 77.0263 53.7477C75.3355 54.722 71.7238 53.9145 70.7223 52.3213C69.653 50.6404 70.6849 47.6106 72.7032 46.4508Z" fill="#A1A1AA"/>
<path d="M57.7119 67.9774C56.3086 65.6183 56.7692 64.1743 59.4043 62.7436C61.1281 61.7979 64.405 62.5586 65.3163 64.1083C66.2136 65.6343 65.494 68.7552 64.0371 69.6599C61.9463 70.9713 59.0318 70.1945 57.7119 67.9774Z" fill="#A1A1AA"/>
<path d="M45.8856 75.3909C44.8873 73.6382 45.7994 70.4872 47.6409 69.4117C49.4876 68.3176 52.1243 68.8418 53.1675 70.5059C54.3829 72.4353 53.5316 75.6622 51.5271 76.7355C49.2176 77.95 47.0578 77.4393 45.8856 75.3909Z" fill="#A1A1AA"/>
</svg>
